# xmcd
#
# Track frame offsets: 
#        183
#        11113
#        20328
#        34390
#        44895
#        58863
#        68633
#        83638
#        97333
#        110948
#        122640
#        135640
#        150073
#        164758
#        176243
#        187408
#        197390
#        210363
#        221680
#        232550
#
# Disc length: 3257 seconds
#
# Revision: 2
# Processed by: cddbd v1.5.2PL0 Copyright (c) Steve Scherf et al.
# Submitted via: ExactAudioCopy v1.1
#
DISCID=230cb714
DTITLE=Frankie Laine - 20 Greatest Hits
DYEAR=1900
DGENRE=Country
TTITLE0=High Noon
TTITLE1=Rawhide
TTITLE2=Riders In The Sky
TTITLE3=The Hanging Tree
TTITLE4=Careless Love
TTITLE5=Gunfight At OK Corral
TTITLE6=On The Trail
TTITLE7=Beyond The Blue Horizon
TTITLE8=Serenade
TTITLE9=Mule Train
TTITLE10=The Cry Of The Wild Goose
TTITLE11=Jezebel
TTITLE12=Jealousy
TTITLE13=Along The Navajo Trail
TTITLE14=The 3:10 To Yuma
TTITLE15=I Believe
TTITLE16=Cool Water
TTITLE17=Ace In The Hole
TTITLE18=Sixteen Tons
TTITLE19=Marie
EXTD=
EXTT0=
EXTT1=
EXTT2=
EXTT3=
EXTT4=
EXTT5=
EXTT6=
EXTT7=
EXTT8=
EXTT9=
EXTT10=
EXTT11=
EXTT12=
EXTT13=
EXTT14=
EXTT15=
EXTT16=
EXTT17=
EXTT18=
EXTT19=
PLAYORDER=
